HIERARCHY
ROOT Hips
{
	OFFSET 0.000000 0.000000 0.000000 
	CHANNELS 6 Xposition Yposition Zposition Zrotation Yrotation Xrotation
	JOINT LeftUpLeg
	{
		OFFSET 1.363060 -1.794630 0.839290 
		CHANNELS 3 Zrotation Yrotation Xrotation
		JOINT LeftLeg
		{
			OFFSET 2.448110 -6.726130 0.000000 
			CHANNELS 3 Zrotation Yrotation Xrotation
			JOINT LeftFoot
			{
				OFFSET 2.562200 -7.039590 0.000000 
				CHANNELS 3 Zrotation Yrotation Xrotation
				JOINT LeftToeBase
				{
					OFFSET 0.157640 -0.433110 2.322550 
					CHANNELS 3 Zrotation Yrotation Xrotation
					End Site
					{
						OFFSET 0.000000 0.000000 0.000000 
					}
				}
			}
		}
	}
	JOINT RightUpLeg
	{
		OFFSET -1.305520 -1.794630 0.839290 
		CHANNELS 3 Zrotation Yrotation Xrotation
		JOINT RightLeg
		{
			OFFSET -2.542530 -6.985550 0.000000 
			CHANNELS 3 Zrotation Yrotation Xrotation
			JOINT RightFoot
			{
				OFFSET -2.568260 -7.056230 0.000000 
				CHANNELS 3 Zrotation Yrotation Xrotation
				JOINT RightToeBase
				{
					OFFSET -0.164730 -0.452590 2.363150 
					CHANNELS 3 Zrotation Yrotation Xrotation
					End Site
					{
						OFFSET 0.000000 0.000000 0.000000 
					}
				}
			}
		}
	}
	JOINT Spine
	{
		OFFSET 0.028270 2.035590 -0.193380 
		CHANNELS 3 Zrotation Yrotation Xrotation
		JOINT Spine1
		{
			OFFSET 0.056720 2.048850 -0.042750 
			CHANNELS 3 Zrotation Yrotation Xrotation
			JOINT Neck1
			{
				OFFSET -0.054170 1.746240 0.172020 
				CHANNELS 3 Zrotation Yrotation Xrotation
				JOINT Head
				{
					OFFSET 0.104070 1.761360 -0.123970 
					CHANNELS 3 Zrotation Yrotation Xrotation
					End Site
					{
						OFFSET 0.000000 0.000000 0.000000 
					}
				}
			}
			JOINT LeftArm
			{
				OFFSET 3.362410 1.200890 -0.311210 
				CHANNELS 3 Zrotation Yrotation Xrotation
				JOINT LeftForeArm
				{
					OFFSET 4.983000 -0.000000 -0.000000 
					CHANNELS 3 Zrotation Yrotation Xrotation
					JOINT LeftHand
					{
						OFFSET 3.483560 -0.000000 -0.000000 
						CHANNELS 3 Zrotation Yrotation Xrotation
						JOINT LeftHandIndex1
						{
							OFFSET 0.715260 -0.000000 -0.000000 
							CHANNELS 3 Zrotation Yrotation Xrotation
							End Site
							{
								OFFSET 0.000000 0.000000 0.000000 
							}
						}
					}
				}
			}
			JOINT RightArm
			{
				OFFSET -3.136600 1.374050 -0.404650 
				CHANNELS 3 Zrotation Yrotation Xrotation
				JOINT RightForeArm
				{
					OFFSET -5.241900 -0.000000 -0.000000 
					CHANNELS 3 Zrotation Yrotation Xrotation
					JOINT RightHand
					{
						OFFSET -3.444170 -0.000000 -0.000000 
						CHANNELS 3 Zrotation Yrotation Xrotation
						JOINT RightHandIndex1
						{
							OFFSET -0.622530 -0.000000 -0.000000 
							CHANNELS 3 Zrotation Yrotation Xrotation
							End Site
							{
								OFFSET 0.000000 0.000000 0.000000 
							}
						}
					}
				}
			}
		}
	}
}
MOTION
Frames: 15
Frame Time: 0.041667
-5.777394 17.797426 -7.079570 174.639357 26.261853 -157.686210 -15.965180 -27.273758 -26.412930 -0.640724 9.631844 21.145116 0.724377 -0.877200 -17.809832 4.084100 -12.271500 -36.699500 27.090793 23.960255 -21.918343 0.851680 -6.039704 12.649270 -0.066728 8.329284 -10.498749 -1.078400 6.600900 -18.538200 2.812550 -5.378104 -4.816700 -2.247869 -3.269274 15.836893 -7.288490 1.834124 37.544342 -5.842400 3.392500 12.004200 -103.905219 -3.192507 22.525882 11.326670 -12.635406 -1.660541 -1.649482 0.820816 6.039843 -7.125000 0.000000 0.000000 95.104512 -4.904271 13.657995 -22.106801 34.683998 -8.787676 -3.227083 1.024846 -11.865539 7.125000 0.000000 0.000000 
-5.777394 17.792699 -7.147070 174.747036 26.745302 -157.651657 -15.879997 -26.860913 -26.596920 -0.686629 9.461856 20.668398 0.666615 -1.243501 -17.543760 4.054500 -12.232500 -36.559600 27.011874 24.617652 -21.880946 0.830932 -6.253448 13.181380 -0.100093 8.428123 -11.018237 -1.004600 6.377800 -17.884700 2.862268 -5.498802 -4.852187 -2.303705 -3.310617 15.779578 -7.422818 1.984578 37.768931 -5.879800 3.449600 12.274300 -104.016579 -3.032121 22.190314 11.328500 -12.643546 -1.662202 -1.607493 0.813875 6.284961 -7.125000 0.000000 0.000000 94.836048 -5.216818 13.156898 -21.934990 34.522090 -8.682416 -3.304816 1.053414 -11.093919 7.125000 0.000000 0.000000 
-5.776405 17.791050 -7.231939 175.048945 27.364299 -157.917385 -15.913002 -26.585057 -25.910141 -0.771645 9.110974 19.874384 0.677870 -1.067370 -17.422246 4.201100 -12.423300 -37.246300 27.416284 24.935466 -21.285225 0.792790 -6.356710 13.598036 -0.112658 8.814937 -11.314571 -1.031900 6.461300 -18.129000 2.865311 -5.549596 -4.787005 -2.614597 -3.311887 15.943364 -7.558996 2.104802 37.845900 -5.947800 3.494700 12.422100 -103.874272 -3.106437 22.253814 11.297212 -12.586236 -1.646705 -1.642444 0.819292 6.126615 -7.125000 0.000000 0.000000 94.818310 -5.281863 12.500448 -21.685110 34.293489 -8.535407 -3.315935 1.107469 -10.773644 7.125000 0.000000 0.000000 
-5.781572 17.793908 -7.280091 174.923544 27.604401 -157.801280 -15.832847 -26.787454 -26.328448 -0.820093 9.023430 19.500396 0.660453 -1.014884 -17.209123 4.844600 -13.206600 -40.146900 27.421512 24.044807 -20.874952 0.808179 -5.865512 12.475680 -0.033853 9.530376 -10.603205 -1.076900 6.596500 -18.525200 2.888548 -5.800564 -4.836029 -2.742138 -3.406871 15.888766 -7.586790 2.151543 37.871527 -5.965300 3.509300 12.488700 -103.658886 -3.224967 22.430652 11.279117 -12.552535 -1.638594 -1.667227 0.825872 5.906285 -7.125000 0.000000 0.000000 94.812529 -5.264101 11.702732 -21.329106 33.929542 -8.313695 -3.385214 1.143700 -10.538656 7.125000 0.000000 0.000000 
-5.788058 17.801823 -7.331320 174.610577 27.835168 -157.808194 -16.019589 -26.921608 -26.814625 -0.827374 9.071893 19.505275 0.651357 -0.999499 -17.118256 5.591400 -14.020300 -43.319000 26.636974 25.079587 -21.507386 0.773870 -6.421773 13.735794 -0.112287 9.000183 -11.368767 -1.090500 6.636500 -18.642800 2.907203 -6.001153 -4.904872 -2.733590 -3.502496 15.713662 -7.592495 2.144154 37.932005 -5.970100 3.504600 12.539800 -103.580288 -3.175770 22.648049 11.321136 -12.629424 -1.659776 -1.634620 0.821032 5.558732 -7.125000 0.000000 0.000000 94.608384 -5.612675 11.219528 -21.139416 33.739369 -8.194926 -3.465743 1.162212 -10.595228 7.125000 0.000000 0.000000 
-5.794104 17.806111 -7.383979 174.416008 28.129318 -158.064400 -16.267563 -26.924500 -27.077672 -0.818728 9.142480 19.632237 0.651315 -0.975838 -17.104827 5.910300 -14.340800 -44.620600 26.789303 23.634090 -20.532454 0.771632 -5.708740 12.240119 0.018443 10.157176 -10.152973 -0.925300 6.128300 -17.157200 2.932663 -6.199328 -4.932038 -2.741877 -3.588099 15.602603 -7.596948 2.154611 37.988478 -5.971500 3.503900 12.602000 -103.536537 -3.154872 22.603128 11.356185 -12.684723 -1.671336 -1.640173 0.809307 5.482993 -7.125000 0.000000 0.000000 94.414088 -6.082051 11.041693 -21.151646 33.769609 -8.200251 -3.542474 1.171293 -10.627296 7.125000 0.000000 0.000000 
-5.803339 17.798305 -7.423775 174.239487 28.196916 -157.692918 -16.131075 -27.029397 -28.079661 -0.803374 9.316768 19.873967 0.625370 -1.096633 -17.013278 5.327700 -13.743500 -42.219700 25.906421 25.298439 -21.651117 0.762623 -6.465909 13.828335 -0.127870 9.131915 -11.588317 -1.057100 6.537400 -18.351800 2.977656 -6.513029 -5.006171 -2.796278 -3.729849 15.578252 -7.599937 2.213029 38.005044 -5.971800 3.521200 12.666000 -103.487712 -3.201117 22.207234 11.381759 -12.724833 -1.675168 -1.641885 0.797915 5.953009 -7.125000 0.000000 0.000000 94.412700 -6.260706 10.427546 -20.938772 33.555075 -8.068645 -3.597320 1.206160 -10.034132 7.125000 0.000000 0.000000 
-5.803888 17.797426 -7.514031 174.172961 28.631698 -158.162571 -16.608891 -27.130253 -27.473439 -0.822467 9.201287 19.682158 0.655733 -0.955315 -17.175532 4.430700 -12.712500 -38.301700 26.198931 24.496567 -20.382683 0.749617 -6.006177 13.029456 -0.086211 9.935056 -11.238616 -1.053000 6.524900 -18.315200 2.942995 -6.585300 -4.925667 -3.119780 -3.746817 15.843911 -7.635348 2.286710 38.092920 -5.967200 3.543900 12.733100 -103.412550 -3.301202 22.152386 11.401800 -12.754148 -1.679446 -1.642695 0.789895 6.107090 -7.125000 0.000000 0.000000 94.673041 -6.375888 11.326989 -21.212783 33.857672 -8.203904 -3.722809 1.137876 -15.034740 7.125000 0.000000 0.000000 
-5.807846 17.780826 -7.558225 173.724501 28.621591 -157.808183 -16.665706 -27.516897 -28.544190 -0.788053 9.423748 20.028790 0.606183 -1.405536 -17.223744 3.499700 -11.463100 -33.858200 25.005546 26.339227 -21.454888 0.747876 -6.718590 14.490204 -0.240960 8.568174 -12.621622 -1.107300 6.685800 -18.787900 2.957893 -6.897677 -4.986322 -3.157211 -3.900122 15.992729 -7.656054 2.361146 38.169944 -5.959400 3.569400 12.801400 -103.283592 -3.450148 22.067654 11.443590 -12.826342 -1.693842 -1.648026 0.803827 6.155042 -7.125000 0.000000 0.000000 94.680851 -6.333247 10.874651 -20.815877 33.444775 -7.953570 -3.789036 1.149885 -15.681766 7.125000 0.000000 0.000000 
-5.808176 17.789621 -7.637268 173.673356 29.262259 -158.567821 -17.111926 -27.745113 -27.518247 -0.811320 9.272045 19.817719 0.673223 -1.056855 -17.547389 2.545100 -9.919400 -28.716200 25.333744 25.989905 -20.109213 0.717487 -6.416048 14.096529 -0.209352 9.190188 -12.267234 -0.945300 6.192300 -17.343300 2.903596 -6.863240 -4.887670 -3.371996 -3.888967 16.122803 -7.651668 2.355226 38.247124 -5.957200 3.563000 12.847100 -103.241991 -3.583774 21.736948 11.471144 -12.864748 -1.700042 -1.652593 0.831832 6.470868 -7.125000 0.000000 0.000000 94.666633 -6.624557 9.513492 -20.384173 33.019770 -7.707278 -3.814605 1.232046 -13.192239 7.125000 0.000000 0.000000 
-5.820379 17.798086 -7.681682 173.560545 29.549750 -158.835575 -17.113436 -28.038592 -27.794555 -0.752522 9.484337 20.324809 0.658067 -1.209095 -17.564277 2.383900 -9.623800 -27.766800 25.202590 25.896385 -19.675292 0.708241 -6.281945 13.882178 -0.193378 9.419484 -12.085928 -0.830400 5.813500 -16.244200 2.904248 -6.939299 -4.898798 -3.399230 -3.926277 15.973955 -7.579321 2.236213 38.277738 -5.956200 3.512800 12.872500 -103.201806 -3.789460 21.765214 11.462027 -12.820252 -1.687398 -1.771466 0.878082 6.741505 -7.125000 0.000000 0.000000 94.649219 -6.703087 8.096114 -19.884566 32.480347 -7.413168 -3.847663 1.310978 -11.332992 7.125000 0.000000 0.000000 
-5.832362 17.800394 -7.737638 173.403232 29.927901 -159.090896 -17.215962 -28.373500 -28.014984 -0.684046 9.695080 20.843627 0.624168 -1.505439 -17.525313 2.552800 -9.933300 -28.760900 25.117511 25.432551 -19.189890 0.693705 -6.066356 13.504757 -0.156262 9.951472 -11.765944 -0.833900 5.825500 -16.278800 2.877277 -6.910031 -4.887782 -3.473903 -3.912440 15.944110 -7.542632 2.138946 38.325914 -5.973000 3.474200 12.918800 -103.232173 -3.989423 21.358773 11.521324 -12.920717 -1.716204 -1.630072 0.895166 7.517723 -7.125000 0.000000 0.000000 94.694738 -6.825893 6.944576 -19.520546 32.086117 -7.195681 -3.903385 1.362581 -10.448080 7.125000 0.000000 0.000000 
-5.838628 17.804462 -7.786010 173.493640 30.239352 -158.926391 -16.762899 -28.908753 -28.468765 -0.648817 9.861610 21.160123 0.604814 -1.591159 -17.457680 3.331300 -11.213000 -33.001500 25.149043 25.252511 -19.170082 0.688152 -5.985059 13.315593 -0.124901 10.362740 -11.591115 -0.859500 5.912100 -16.529500 2.908040 -6.974219 -4.907040 -3.480075 -3.934141 15.964252 -7.564774 2.104063 38.362849 -6.017200 3.463400 12.983000 -103.288581 -4.213087 20.672963 11.652615 -13.139419 -1.768730 -1.460612 0.861254 8.209909 -7.125000 0.000000 0.000000 94.585779 -6.925509 5.992023 -19.066238 31.584852 -6.927784 -3.989211 1.359204 -9.169552 7.125000 0.000000 0.000000 
-5.841706 17.807760 -7.834161 173.638619 30.591198 -158.730267 -16.234006 -29.409277 -28.864355 -0.632607 9.966008 21.318005 0.588437 -1.566167 -17.279255 4.854400 -13.217900 -40.189600 25.116885 25.751354 -19.230912 0.684058 -6.081183 13.507216 -0.142457 10.427107 -11.854543 -0.817300 5.768800 -16.115000 2.971550 -7.093519 -4.933568 -3.406422 -3.987733 15.974971 -7.619541 2.170730 38.374457 -6.045500 3.487200 13.048700 -103.425426 -4.416901 19.891751 11.794826 -13.364232 -1.818981 -1.383875 0.846117 8.912587 -7.125000 0.000000 0.000000 94.300067 -7.134317 5.664277 -18.747874 31.232017 -6.740325 -4.040394 1.382248 -8.490330 7.125000 0.000000 0.000000 
-5.845224 17.809959 -7.889128 173.850020 31.125661 -158.565236 -15.658011 -29.855029 -29.068638 -0.627283 9.984006 21.290399 0.543911 -1.691641 -16.918068 5.806900 -14.238600 -44.201700 25.005342 27.220298 -19.408793 0.675990 -6.452924 14.305150 -0.213900 9.813993 -12.494862 -0.902600 6.054700 -16.943100 3.068381 -7.136209 -4.978759 -3.177433 -4.013323 15.851686 -7.676302 2.323404 38.299242 -6.036800 3.532300 13.079100 -103.788426 -4.456539 19.606625 11.892750 -13.490509 -1.848184 -1.485037 0.899492 9.300257 -7.125000 0.000000 0.000000 93.776850 -7.694061 5.554365 -18.618345 31.091070 -6.663760 -4.092488 1.403358 -8.083166 7.125000 0.000000 0.000000 
